<?xml version="1.0" standalone="no"?>
<!DOCTYPE svg PUBLIC "-//W3C//DTD SVG 20010904//EN"
 "http://www.w3.org/TR/2001/REC-SVG-20010904/DTD/svg10.dtd">
<svg version="1.0" xmlns="http://www.w3.org/2000/svg"
 width="199.000000pt" height="253.000000pt" viewBox="0 0 199.000000 253.000000"
 preserveAspectRatio="xMidYMid meet">

<g transform="translate(0.000000,253.000000) scale(0.100000,-0.100000)"
fill="#000000" stroke="none">
<path d="M381 1985 c-17 -20 -31 -42 -31 -49 0 -9 -8 -12 -25 -9 -16 4 -35 -3
-54 -18 l-30 -24 0 -236 -1 -236 53 -15 c28 -9 53 -14 55 -13 2 2 3 107 2 234
0 127 2 231 5 231 2 0 53 -14 112 -31 60 -17 134 -38 165 -46 50 -13 58 -19
63 -44 4 -16 5 -43 3 -61 -3 -31 -2 -32 55 -46 l57 -14 0 -59 0 -58 38 -10
c20 -5 49 -13 65 -17 l27 -6 0 56 c0 31 1 56 3 56 1 0 25 -6 54 -14 28 -8 54
-11 57 -8 3 3 6 29 6 58 l0 52 33 -8 c17 -5 48 -13 67 -19 19 -5 54 -15 78
-21 l42 -11 2 -62 2 -62 3 58 c2 31 9 57 14 57 6 0 30 -5 55 -11 l44 -11 0
-234 0 -234 -27 6 c-16 4 -39 11 -51 16 -35 12 -42 3 -42 -57 l0 -54 -45 16
c-64 21 -75 14 -75 -48 0 -51 0 -51 -27 -45 -88 22 -83 24 -83 -37 0 -61 3
-60 -77 -35 -31 9 -32 12 -36 66 -2 31 -4 6 -5 -57 l-2 -113 -26 6 c-15 4 -39
10 -55 13 l-29 6 0 -56 0 -56 56 -17 56 -16 29 28 c16 15 29 38 29 52 0 21 3
23 31 17 25 -6 36 -2 60 21 16 15 29 38 29 51 0 20 3 22 27 12 23 -8 30 -6 60
23 18 17 33 41 33 51 0 16 5 18 26 13 21 -6 33 -1 55 20 16 15 29 35 29 44 0
24 9 30 35 20 18 -7 29 -3 54 22 17 17 31 39 31 50 0 17 5 20 29 15 23 -5 37
0 60 21 l31 26 0 233 0 232 -60 17 -60 17 0 58 c0 46 -3 59 -17 63 -10 3 -87
24 -172 46 l-153 42 -29 -27 c-15 -15 -29 -37 -31 -49 -2 -17 -9 -20 -32 -18
-32 4 -86 -39 -86 -70 0 -11 -7 -18 -17 -18 -36 0 -47 17 -47 75 l-1 56 -40
10 c-80 20 -75 16 -75 78 l0 58 -157 42 c-87 23 -165 44 -174 47 -10 3 -29 -9
-48 -31z"/>
<path d="M583 1725 c0 -27 2 -38 4 -22 2 15 2 37 0 50 -2 12 -4 0 -4 -28z"/>
<path d="M460 1520 l0 -169 -43 13 c-59 18 -67 12 -67 -44 0 -55 8 -63 78 -75
l42 -7 0 226 c0 124 -2 226 -5 226 -3 0 -5 -76 -5 -170z"/>
<path d="M583 1610 c0 -30 2 -43 4 -27 2 15 2 39 0 55 -2 15 -4 2 -4 -28z"/>
<path d="M1161 1604 c0 -11 3 -14 6 -6 3 7 2 16 -1 19 -3 4 -6 -2 -5 -13z"/>
<path d="M1162 1545 c0 -16 2 -22 5 -12 2 9 2 23 0 30 -3 6 -5 -1 -5 -18z"/>
<path d="M583 1490 c0 -30 2 -43 4 -27 2 15 2 39 0 55 -2 15 -4 2 -4 -28z"/>
<path d="M1163 1450 c0 -30 2 -43 4 -27 2 15 2 39 0 55 -2 15 -4 2 -4 -28z"/>
<path d="M813 1430 c0 -30 2 -43 4 -27 2 15 2 39 0 55 -2 15 -4 2 -4 -28z"/>
<path d="M1283 1415 c0 -33 2 -45 4 -27 2 18 2 45 0 60 -2 15 -4 0 -4 -33z"/>
<path d="M583 1370 c0 -30 2 -43 4 -27 2 15 2 39 0 55 -2 15 -4 2 -4 -28z"/>
<path d="M932 1395 c0 -16 2 -22 5 -12 2 9 2 23 0 30 -3 6 -5 -1 -5 -18z"/>
<path d="M1163 1345 c0 -22 2 -30 4 -17 2 12 2 30 0 40 -3 9 -5 -1 -4 -23z"/>
<path d="M1283 1300 c0 -30 2 -43 4 -27 2 15 2 39 0 55 -2 15 -4 2 -4 -28z"/>
<path d="M582 1258 l-2 -57 -47 14 c-27 8 -52 15 -56 15 -4 0 -7 -26 -5 -57
l3 -57 55 -16 55 -16 5 -59 5 -59 48 -14 c54 -15 57 -14 59 19 3 82 2 85 -57
98 l-54 12 -4 117 c-1 64 -4 91 -5 60z"/>
<path d="M1163 1220 c0 -30 2 -43 4 -27 2 15 2 39 0 55 -2 15 -4 2 -4 -28z"/>
<path d="M813 1195 c0 -33 2 -45 4 -27 2 18 2 45 0 60 -2 15 -4 0 -4 -33z"/>
<path d="M813 1075 c0 -33 2 -45 4 -27 2 18 2 45 0 60 -2 15 -4 0 -4 -33z"/>
<path d="M812 961 c-2 -51 -3 -53 -27 -47 -14 3 -36 9 -50 12 -25 6 -25 5 -25
-53 l0 -60 51 -11 c29 -7 54 -11 56 -8 2 2 2 52 0 112 -1 60 -4 85 -5 55z"/>
</g>
</svg>
